<mxfile host="65bd71144e">
    <diagram id="k9lfCQ5GCI5vQcIyKgbF" name="Страница 1">
        <mxGraphModel dx="2880" dy="1358" grid="1" gridSize="10" guides="1" tooltips="1" connect="1" arrows="1" fold="1" page="1" pageScale="1" pageWidth="827" pageHeight="1169" math="0" shadow="0">
            <root>
                <mxCell id="0"/>
                <mxCell id="1" parent="0"/>
                <mxCell id="5" style="edgeStyle=none;html=1;exitX=0.5;exitY=1;exitDx=0;exitDy=0;entryX=0.5;entryY=0;entryDx=0;entryDy=0;" edge="1" parent="1" source="2" target="4">
                    <mxGeometry relative="1" as="geometry"/>
                </mxCell>
                <mxCell id="2" value="Start&lt;br&gt;FillUserArray" style="rounded=1;whiteSpace=wrap;html=1;" parent="1" vertex="1">
                    <mxGeometry x="-420" y="10" width="120" height="60" as="geometry"/>
                </mxCell>
                <mxCell id="3" value="length = userArray.Length" style="rounded=0;whiteSpace=wrap;html=1;" vertex="1" parent="1">
                    <mxGeometry x="-435" y="190" width="150" height="60" as="geometry"/>
                </mxCell>
                <mxCell id="7" value="" style="edgeStyle=none;html=1;" edge="1" parent="1" source="4" target="3">
                    <mxGeometry relative="1" as="geometry"/>
                </mxCell>
                <mxCell id="4" value="string [] userArray" style="shape=parallelogram;perimeter=parallelogramPerimeter;whiteSpace=wrap;html=1;fixedSize=1;" vertex="1" parent="1">
                    <mxGeometry x="-430" y="100" width="140" height="60" as="geometry"/>
                </mxCell>
                <mxCell id="8" value="for i = 0, length" style="shape=hexagon;perimeter=hexagonPerimeter2;whiteSpace=wrap;html=1;fixedSize=1;size=20;" vertex="1" parent="1">
                    <mxGeometry x="-421" y="277" width="120" height="50" as="geometry"/>
                </mxCell>
                <mxCell id="21" value="" style="edgeStyle=none;html=1;" edge="1" parent="1" source="10" target="20">
                    <mxGeometry relative="1" as="geometry"/>
                </mxCell>
                <mxCell id="10" value="userArray[i]" style="shape=parallelogram;perimeter=parallelogramPerimeter;whiteSpace=wrap;html=1;fixedSize=1;" vertex="1" parent="1">
                    <mxGeometry x="-420" y="355" width="120" height="60" as="geometry"/>
                </mxCell>
                <mxCell id="11" value="" style="endArrow=classic;html=1;exitX=0.5;exitY=1;exitDx=0;exitDy=0;entryX=0.5;entryY=0;entryDx=0;entryDy=0;" edge="1" parent="1" source="3" target="8">
                    <mxGeometry width="50" height="50" relative="1" as="geometry">
                        <mxPoint x="-190" y="240" as="sourcePoint"/>
                        <mxPoint x="-140" y="190" as="targetPoint"/>
                    </mxGeometry>
                </mxCell>
                <mxCell id="18" value="" style="edgeStyle=elbowEdgeStyle;elbow=horizontal;endArrow=classic;html=1;exitX=0;exitY=0.5;exitDx=0;exitDy=0;" edge="1" parent="1" source="10" target="8">
                    <mxGeometry width="50" height="50" relative="1" as="geometry">
                        <mxPoint x="-190" y="410" as="sourcePoint"/>
                        <mxPoint x="-430" y="300" as="targetPoint"/>
                        <Array as="points">
                            <mxPoint x="-470" y="340"/>
                        </Array>
                    </mxGeometry>
                </mxCell>
                <mxCell id="19" value="" style="edgeStyle=elbowEdgeStyle;elbow=horizontal;endArrow=classic;html=1;exitX=1;exitY=0.5;exitDx=0;exitDy=0;" edge="1" parent="1" source="8">
                    <mxGeometry width="50" height="50" relative="1" as="geometry">
                        <mxPoint x="-190" y="410" as="sourcePoint"/>
                        <mxPoint x="-361" y="440" as="targetPoint"/>
                        <Array as="points">
                            <mxPoint x="-270" y="360"/>
                        </Array>
                    </mxGeometry>
                </mxCell>
                <mxCell id="20" value="End FillUserArray" style="rounded=1;whiteSpace=wrap;html=1;" vertex="1" parent="1">
                    <mxGeometry x="-420" y="473" width="120" height="60" as="geometry"/>
                </mxCell>
                <mxCell id="22" style="edgeStyle=none;html=1;exitX=0.5;exitY=1;exitDx=0;exitDy=0;entryX=0.5;entryY=0;entryDx=0;entryDy=0;" edge="1" parent="1" source="23" target="26">
                    <mxGeometry relative="1" as="geometry"/>
                </mxCell>
                <mxCell id="23" value="Start&lt;br&gt;PrintArray" style="rounded=1;whiteSpace=wrap;html=1;" vertex="1" parent="1">
                    <mxGeometry x="80" y="10" width="120" height="60" as="geometry"/>
                </mxCell>
                <mxCell id="24" value="length = printArray.Length" style="rounded=0;whiteSpace=wrap;html=1;" vertex="1" parent="1">
                    <mxGeometry x="65" y="190" width="150" height="60" as="geometry"/>
                </mxCell>
                <mxCell id="25" value="" style="edgeStyle=none;html=1;" edge="1" parent="1" source="26" target="24">
                    <mxGeometry relative="1" as="geometry"/>
                </mxCell>
                <mxCell id="26" value="string [] printArray" style="shape=parallelogram;perimeter=parallelogramPerimeter;whiteSpace=wrap;html=1;fixedSize=1;" vertex="1" parent="1">
                    <mxGeometry x="70" y="100" width="140" height="60" as="geometry"/>
                </mxCell>
                <mxCell id="27" value="for i = 0, length" style="shape=hexagon;perimeter=hexagonPerimeter2;whiteSpace=wrap;html=1;fixedSize=1;size=20;" vertex="1" parent="1">
                    <mxGeometry x="79" y="277" width="120" height="50" as="geometry"/>
                </mxCell>
                <mxCell id="28" value="" style="edgeStyle=none;html=1;exitX=0.51;exitY=0.885;exitDx=0;exitDy=0;exitPerimeter=0;" edge="1" parent="1" source="34" target="33">
                    <mxGeometry relative="1" as="geometry">
                        <mxPoint x="140" y="415" as="sourcePoint"/>
                    </mxGeometry>
                </mxCell>
                <mxCell id="30" value="" style="endArrow=classic;html=1;exitX=0.5;exitY=1;exitDx=0;exitDy=0;entryX=0.5;entryY=0;entryDx=0;entryDy=0;" edge="1" parent="1" source="24" target="27">
                    <mxGeometry width="50" height="50" relative="1" as="geometry">
                        <mxPoint x="310" y="240" as="sourcePoint"/>
                        <mxPoint x="360" y="190" as="targetPoint"/>
                    </mxGeometry>
                </mxCell>
                <mxCell id="31" value="" style="edgeStyle=elbowEdgeStyle;elbow=horizontal;endArrow=classic;html=1;exitX=0;exitY=0.5;exitDx=0;exitDy=0;" edge="1" parent="1" target="27">
                    <mxGeometry width="50" height="50" relative="1" as="geometry">
                        <mxPoint x="90" y="385" as="sourcePoint"/>
                        <mxPoint x="70" y="300" as="targetPoint"/>
                        <Array as="points">
                            <mxPoint x="30" y="340"/>
                        </Array>
                    </mxGeometry>
                </mxCell>
                <mxCell id="32" value="" style="edgeStyle=elbowEdgeStyle;elbow=horizontal;endArrow=classic;html=1;exitX=1;exitY=0.5;exitDx=0;exitDy=0;" edge="1" parent="1" source="27">
                    <mxGeometry width="50" height="50" relative="1" as="geometry">
                        <mxPoint x="310" y="410" as="sourcePoint"/>
                        <mxPoint x="139" y="440" as="targetPoint"/>
                        <Array as="points">
                            <mxPoint x="230" y="360"/>
                        </Array>
                    </mxGeometry>
                </mxCell>
                <mxCell id="33" value="End PrintArray" style="rounded=1;whiteSpace=wrap;html=1;" vertex="1" parent="1">
                    <mxGeometry x="80" y="473" width="120" height="60" as="geometry"/>
                </mxCell>
                <mxCell id="35" value="" style="edgeStyle=none;html=1;" edge="1" parent="1" source="34" target="33">
                    <mxGeometry relative="1" as="geometry"/>
                </mxCell>
                <mxCell id="34" value="printArray [i]" style="shape=document;whiteSpace=wrap;html=1;boundedLbl=1;" vertex="1" parent="1">
                    <mxGeometry x="79" y="345" width="120" height="80" as="geometry"/>
                </mxCell>
                <mxCell id="36" style="edgeStyle=none;html=1;exitX=0.5;exitY=1;exitDx=0;exitDy=0;entryX=0.5;entryY=0;entryDx=0;entryDy=0;" edge="1" parent="1" target="40">
                    <mxGeometry relative="1" as="geometry">
                        <mxPoint x="670" y="70" as="sourcePoint"/>
                    </mxGeometry>
                </mxCell>
                <mxCell id="38" value="length = printArray.Length&lt;br&gt;changeSize = 0" style="rounded=0;whiteSpace=wrap;html=1;" vertex="1" parent="1">
                    <mxGeometry x="595" y="178" width="150" height="60" as="geometry"/>
                </mxCell>
                <mxCell id="39" value="" style="edgeStyle=none;html=1;" edge="1" parent="1" source="40" target="38">
                    <mxGeometry relative="1" as="geometry"/>
                </mxCell>
                <mxCell id="40" value="string [] enterArray" style="shape=parallelogram;perimeter=parallelogramPerimeter;whiteSpace=wrap;html=1;fixedSize=1;" vertex="1" parent="1">
                    <mxGeometry x="600" y="93" width="140" height="60" as="geometry"/>
                </mxCell>
                <mxCell id="41" value="for i = 0, length" style="shape=hexagon;perimeter=hexagonPerimeter2;whiteSpace=wrap;html=1;fixedSize=1;size=20;" vertex="1" parent="1">
                    <mxGeometry x="609" y="264" width="120" height="50" as="geometry"/>
                </mxCell>
                <mxCell id="43" value="" style="endArrow=classic;html=1;exitX=0.5;exitY=1;exitDx=0;exitDy=0;entryX=0.5;entryY=0;entryDx=0;entryDy=0;" edge="1" parent="1" source="38" target="41">
                    <mxGeometry width="50" height="50" relative="1" as="geometry">
                        <mxPoint x="840" y="240" as="sourcePoint"/>
                        <mxPoint x="890" y="190" as="targetPoint"/>
                    </mxGeometry>
                </mxCell>
                <mxCell id="44" value="" style="edgeStyle=elbowEdgeStyle;elbow=horizontal;endArrow=classic;html=1;exitX=0;exitY=0.5;exitDx=0;exitDy=0;" edge="1" parent="1" target="41" source="51">
                    <mxGeometry width="50" height="50" relative="1" as="geometry">
                        <mxPoint x="590" y="490" as="sourcePoint"/>
                        <mxPoint x="600" y="300" as="targetPoint"/>
                        <Array as="points">
                            <mxPoint x="530" y="400"/>
                        </Array>
                    </mxGeometry>
                </mxCell>
                <mxCell id="49" value="Start&lt;br&gt;ChangeArray" style="rounded=1;whiteSpace=wrap;html=1;" vertex="1" parent="1">
                    <mxGeometry x="609" y="10" width="120" height="60" as="geometry"/>
                </mxCell>
                <mxCell id="50" value="enterArray[i].Length&amp;lt;=3" style="rhombus;whiteSpace=wrap;html=1;fontColor=#FFFFFF;" vertex="1" parent="1">
                    <mxGeometry x="590" y="339" width="160" height="77" as="geometry"/>
                </mxCell>
                <mxCell id="81" value="" style="edgeStyle=none;html=1;fontColor=#FFFFFF;" edge="1" parent="1" source="51" target="79">
                    <mxGeometry relative="1" as="geometry"/>
                </mxCell>
                <mxCell id="51" value="changeSize = &lt;br&gt;changeSize +1" style="rounded=0;whiteSpace=wrap;html=1;" vertex="1" parent="1">
                    <mxGeometry x="594" y="439" width="150" height="60" as="geometry"/>
                </mxCell>
                <mxCell id="52" value="" style="endArrow=classic;html=1;fontColor=#FFFFFF;exitX=0.5;exitY=1;exitDx=0;exitDy=0;entryX=0.5;entryY=0;entryDx=0;entryDy=0;" edge="1" parent="1" source="41" target="50">
                    <mxGeometry width="50" height="50" relative="1" as="geometry">
                        <mxPoint x="510" y="400" as="sourcePoint"/>
                        <mxPoint x="560" y="350" as="targetPoint"/>
                    </mxGeometry>
                </mxCell>
                <mxCell id="53" value="" style="endArrow=classic;html=1;fontColor=#FFFFFF;exitX=0.5;exitY=1;exitDx=0;exitDy=0;" edge="1" parent="1" source="50" target="51">
                    <mxGeometry width="50" height="50" relative="1" as="geometry">
                        <mxPoint x="510" y="400" as="sourcePoint"/>
                        <mxPoint x="560" y="350" as="targetPoint"/>
                    </mxGeometry>
                </mxCell>
                <mxCell id="54" value="" style="edgeStyle=elbowEdgeStyle;elbow=horizontal;endArrow=classic;html=1;exitX=1;exitY=0.5;exitDx=0;exitDy=0;" edge="1" parent="1" source="41">
                    <mxGeometry width="50" height="50" relative="1" as="geometry">
                        <mxPoint x="459" y="312" as="sourcePoint"/>
                        <mxPoint x="669" y="510" as="targetPoint"/>
                        <Array as="points">
                            <mxPoint x="770" y="380"/>
                        </Array>
                    </mxGeometry>
                </mxCell>
                <mxCell id="57" value="for i = 0, changeSize" style="shape=hexagon;perimeter=hexagonPerimeter2;whiteSpace=wrap;html=1;fixedSize=1;size=20;" vertex="1" parent="1">
                    <mxGeometry x="601" y="708" width="140" height="50" as="geometry"/>
                </mxCell>
                <mxCell id="58" value="" style="endArrow=classic;html=1;fontColor=#FFFFFF;entryX=0.5;entryY=0;entryDx=0;entryDy=0;exitX=0.5;exitY=1;exitDx=0;exitDy=0;startArrow=none;" edge="1" parent="1" source="79" target="79">
                    <mxGeometry width="50" height="50" relative="1" as="geometry">
                        <mxPoint x="510" y="400" as="sourcePoint"/>
                        <mxPoint x="560" y="350" as="targetPoint"/>
                    </mxGeometry>
                </mxCell>
                <mxCell id="93" value="" style="edgeStyle=none;html=1;fontFamily=Helvetica;fontSize=12;fontColor=#FFFFFF;" edge="1" parent="1" source="59" target="57">
                    <mxGeometry relative="1" as="geometry"/>
                </mxCell>
                <mxCell id="59" value="count = 0" style="rounded=0;whiteSpace=wrap;html=1;fontColor=#FFFFFF;" vertex="1" parent="1">
                    <mxGeometry x="610" y="636" width="120" height="44" as="geometry"/>
                </mxCell>
                <mxCell id="61" value="for j = count, length" style="shape=hexagon;perimeter=hexagonPerimeter2;whiteSpace=wrap;html=1;fixedSize=1;size=20;" vertex="1" parent="1">
                    <mxGeometry x="609" y="788" width="120" height="50" as="geometry"/>
                </mxCell>
                <mxCell id="63" value="" style="endArrow=classic;html=1;fontColor=#FFFFFF;entryX=0.5;entryY=0;entryDx=0;entryDy=0;" edge="1" parent="1" source="57" target="61">
                    <mxGeometry width="50" height="50" relative="1" as="geometry">
                        <mxPoint x="510" y="740" as="sourcePoint"/>
                        <mxPoint x="560" y="690" as="targetPoint"/>
                    </mxGeometry>
                </mxCell>
                <mxCell id="64" value="yes" style="text;html=1;strokeColor=none;fillColor=none;align=center;verticalAlign=middle;whiteSpace=wrap;rounded=0;fontColor=#FFFFFF;" vertex="1" parent="1">
                    <mxGeometry x="659" y="409" width="60" height="30" as="geometry"/>
                </mxCell>
                <mxCell id="65" value="" style="endArrow=classic;html=1;fontColor=#FFFFFF;" edge="1" parent="1">
                    <mxGeometry width="50" height="50" relative="1" as="geometry">
                        <mxPoint x="590" y="377.07" as="sourcePoint"/>
                        <mxPoint x="530" y="377.07" as="targetPoint"/>
                    </mxGeometry>
                </mxCell>
                <mxCell id="69" value="no" style="text;html=1;strokeColor=none;fillColor=none;align=center;verticalAlign=middle;whiteSpace=wrap;rounded=0;fontColor=#FFFFFF;" vertex="1" parent="1">
                    <mxGeometry x="535" y="345" width="60" height="30" as="geometry"/>
                </mxCell>
                <mxCell id="70" value="enterArray[j].Length&amp;lt;=3" style="rhombus;whiteSpace=wrap;html=1;fontColor=#FFFFFF;" vertex="1" parent="1">
                    <mxGeometry x="589" y="867" width="160" height="77" as="geometry"/>
                </mxCell>
                <mxCell id="71" value="yes" style="text;html=1;strokeColor=none;fillColor=none;align=center;verticalAlign=middle;whiteSpace=wrap;rounded=0;fontColor=#FFFFFF;" vertex="1" parent="1">
                    <mxGeometry x="659" y="940" width="60" height="30" as="geometry"/>
                </mxCell>
                <mxCell id="72" value="no" style="text;html=1;strokeColor=none;fillColor=none;align=center;verticalAlign=middle;whiteSpace=wrap;rounded=0;fontColor=#FFFFFF;" vertex="1" parent="1">
                    <mxGeometry x="540" y="880" width="60" height="30" as="geometry"/>
                </mxCell>
                <mxCell id="73" value="" style="endArrow=classic;html=1;fontColor=#FFFFFF;exitX=0.5;exitY=1;exitDx=0;exitDy=0;entryX=0.5;entryY=0;entryDx=0;entryDy=0;" edge="1" parent="1" source="61" target="70">
                    <mxGeometry width="50" height="50" relative="1" as="geometry">
                        <mxPoint x="630" y="850" as="sourcePoint"/>
                        <mxPoint x="680" y="800" as="targetPoint"/>
                    </mxGeometry>
                </mxCell>
                <mxCell id="92" value="" style="edgeStyle=none;html=1;fontFamily=Helvetica;fontSize=12;fontColor=#FFFFFF;" edge="1" parent="1" source="74">
                    <mxGeometry relative="1" as="geometry">
                        <mxPoint x="669" y="1060" as="targetPoint"/>
                    </mxGeometry>
                </mxCell>
                <mxCell id="74" value="printArrai [i] = enterArray [j]&lt;br&gt;count = j+1" style="rounded=0;whiteSpace=wrap;html=1;fontColor=#FFFFFF;" vertex="1" parent="1">
                    <mxGeometry x="590" y="975" width="160" height="50" as="geometry"/>
                </mxCell>
                <mxCell id="76" value="" style="endArrow=classic;html=1;fontColor=#FFFFFF;entryX=0.5;entryY=0;entryDx=0;entryDy=0;exitX=0.5;exitY=1;exitDx=0;exitDy=0;" edge="1" parent="1" source="70" target="74">
                    <mxGeometry width="50" height="50" relative="1" as="geometry">
                        <mxPoint x="630" y="1020" as="sourcePoint"/>
                        <mxPoint x="680" y="970" as="targetPoint"/>
                    </mxGeometry>
                </mxCell>
                <mxCell id="77" value="" style="edgeStyle=elbowEdgeStyle;elbow=horizontal;endArrow=classic;html=1;exitX=0;exitY=0.5;exitDx=0;exitDy=0;entryX=0;entryY=0.5;entryDx=0;entryDy=0;" edge="1" parent="1" source="70" target="61">
                    <mxGeometry width="50" height="50" relative="1" as="geometry">
                        <mxPoint x="588.5" y="959" as="sourcePoint"/>
                        <mxPoint x="603.5" y="771" as="targetPoint"/>
                        <Array as="points">
                            <mxPoint x="540" y="910"/>
                        </Array>
                    </mxGeometry>
                </mxCell>
                <mxCell id="78" value="" style="edgeStyle=elbowEdgeStyle;elbow=horizontal;endArrow=classic;html=1;fontColor=#FFFFFF;exitX=0;exitY=0.5;exitDx=0;exitDy=0;entryX=0;entryY=0.5;entryDx=0;entryDy=0;" edge="1" parent="1" source="74" target="57">
                    <mxGeometry width="50" height="50" relative="1" as="geometry">
                        <mxPoint x="690" y="860" as="sourcePoint"/>
                        <mxPoint x="740" y="810" as="targetPoint"/>
                        <Array as="points">
                            <mxPoint x="500" y="920"/>
                        </Array>
                    </mxGeometry>
                </mxCell>
                <mxCell id="82" value="" style="edgeStyle=none;html=1;fontColor=#FFFFFF;" edge="1" parent="1" source="79" target="59">
                    <mxGeometry relative="1" as="geometry"/>
                </mxCell>
                <mxCell id="79" value="changeSize = 0" style="rhombus;whiteSpace=wrap;html=1;fontColor=#FFFFFF;" vertex="1" parent="1">
                    <mxGeometry x="589" y="529" width="160" height="77" as="geometry"/>
                </mxCell>
                <mxCell id="83" value="yes" style="text;html=1;strokeColor=none;fillColor=none;align=center;verticalAlign=middle;whiteSpace=wrap;rounded=0;fontColor=#FFFFFF;" vertex="1" parent="1">
                    <mxGeometry x="460" y="570" width="125" height="30" as="geometry"/>
                </mxCell>
                <mxCell id="84" value="no" style="text;html=1;strokeColor=none;fillColor=none;align=center;verticalAlign=middle;whiteSpace=wrap;rounded=0;fontColor=#FFFFFF;" vertex="1" parent="1">
                    <mxGeometry x="659" y="600" width="60" height="30" as="geometry"/>
                </mxCell>
                <mxCell id="85" value="&lt;p&gt;printArrai [ ] = {&quot;&lt;span style=&quot;background-color: rgb(30 , 30 , 30)&quot;&gt;В массиве отсутствуют элементы длиной меньше или равной 3 символам&quot;}&lt;/span&gt;&lt;/p&gt;" style="rounded=0;whiteSpace=wrap;html=1;fontColor=#FFFFFF;" vertex="1" parent="1">
                    <mxGeometry x="340" y="690" width="150" height="100" as="geometry"/>
                </mxCell>
                <mxCell id="87" value="" style="edgeStyle=segmentEdgeStyle;endArrow=classic;html=1;fontFamily=Helvetica;fontSize=12;fontColor=#FFFFFF;exitX=0;exitY=0.5;exitDx=0;exitDy=0;" edge="1" parent="1" source="79" target="85">
                    <mxGeometry width="50" height="50" relative="1" as="geometry">
                        <mxPoint x="580" y="650" as="sourcePoint"/>
                        <mxPoint x="580" y="630" as="targetPoint"/>
                    </mxGeometry>
                </mxCell>
                <mxCell id="89" value="" style="endArrow=classic;html=1;fontFamily=Helvetica;fontSize=12;fontColor=#FFFFFF;entryX=0.5;entryY=0;entryDx=0;entryDy=0;" edge="1" parent="1" source="85">
                    <mxGeometry width="50" height="50" relative="1" as="geometry">
                        <mxPoint x="400" y="820" as="sourcePoint"/>
                        <mxPoint x="414" y="853" as="targetPoint"/>
                    </mxGeometry>
                </mxCell>
                <mxCell id="94" value="return printArray" style="rounded=1;whiteSpace=wrap;html=1;" vertex="1" parent="1">
                    <mxGeometry x="609" y="1060" width="120" height="40" as="geometry"/>
                </mxCell>
                <mxCell id="96" value="return printArray" style="rounded=1;whiteSpace=wrap;html=1;" vertex="1" parent="1">
                    <mxGeometry x="354" y="854" width="120" height="40" as="geometry"/>
                </mxCell>
                <mxCell id="97" value="Start" style="rounded=1;whiteSpace=wrap;html=1;fontFamily=Helvetica;fontSize=12;fontColor=#FFFFFF;" vertex="1" parent="1">
                    <mxGeometry x="-789" y="354" width="120" height="40" as="geometry"/>
                </mxCell>
                <mxCell id="104" value="" style="edgeStyle=none;html=1;fontFamily=Helvetica;fontSize=12;fontColor=#FFFFFF;" edge="1" parent="1" source="98" target="101">
                    <mxGeometry relative="1" as="geometry">
                        <mxPoint x="-789" y="494" as="targetPoint"/>
                    </mxGeometry>
                </mxCell>
                <mxCell id="98" value="input" style="shape=parallelogram;perimeter=parallelogramPerimeter;whiteSpace=wrap;html=1;fixedSize=1;fontFamily=Helvetica;fontSize=12;fontColor=#FFFFFF;" vertex="1" parent="1">
                    <mxGeometry x="-789" y="431.5" width="120" height="42.5" as="geometry"/>
                </mxCell>
                <mxCell id="100" value="" style="endArrow=classic;html=1;fontFamily=Helvetica;fontSize=12;fontColor=#FFFFFF;exitX=0.5;exitY=1;exitDx=0;exitDy=0;" edge="1" parent="1" source="97" target="98">
                    <mxGeometry width="50" height="50" relative="1" as="geometry">
                        <mxPoint x="-709" y="344" as="sourcePoint"/>
                        <mxPoint x="-659" y="294" as="targetPoint"/>
                    </mxGeometry>
                </mxCell>
                <mxCell id="106" value="" style="edgeStyle=none;html=1;fontFamily=Helvetica;fontSize=12;fontColor=#FFFFFF;" edge="1" parent="1" source="101" target="102">
                    <mxGeometry relative="1" as="geometry"/>
                </mxCell>
                <mxCell id="101" value="switch (input)" style="rhombus;whiteSpace=wrap;html=1;fontFamily=Helvetica;fontSize=12;fontColor=#FFFFFF;" vertex="1" parent="1">
                    <mxGeometry x="-789" y="500" width="120" height="67" as="geometry"/>
                </mxCell>
                <mxCell id="107" value="" style="edgeStyle=none;html=1;fontFamily=Helvetica;fontSize=12;fontColor=#FFFFFF;" edge="1" parent="1" source="102" target="103">
                    <mxGeometry relative="1" as="geometry"/>
                </mxCell>
                <mxCell id="128" value="" style="edgeStyle=none;html=1;fontFamily=Helvetica;fontSize=12;fontColor=#FFFFFF;" edge="1" parent="1" source="102" target="118">
                    <mxGeometry relative="1" as="geometry"/>
                </mxCell>
                <mxCell id="102" value="case input == 1" style="rhombus;whiteSpace=wrap;html=1;fontFamily=Helvetica;fontSize=12;fontColor=#FFFFFF;" vertex="1" parent="1">
                    <mxGeometry x="-789" y="592" width="120" height="80" as="geometry"/>
                </mxCell>
                <mxCell id="109" value="" style="edgeStyle=none;html=1;fontFamily=Helvetica;fontSize=12;fontColor=#FFFFFF;" edge="1" parent="1" source="103" target="108">
                    <mxGeometry relative="1" as="geometry"/>
                </mxCell>
                <mxCell id="103" value="&lt;p style=&quot;line-height: 19px&quot;&gt;arrayFi&lt;span style=&quot;background-color: rgb(30 , 30 , 30)&quot;&gt;x [ ] = {&quot;cut&quot;, &quot;go&quot;,&quot;paste&quot;, &quot;be&quot;, &quot;understand&quot;}&lt;/span&gt;&lt;/p&gt;" style="rounded=0;whiteSpace=wrap;html=1;fontFamily=Helvetica;fontSize=12;fillColor=#2A2A2A;" vertex="1" parent="1">
                    <mxGeometry x="-629" y="602" width="120" height="60" as="geometry"/>
                </mxCell>
                <mxCell id="111" value="" style="edgeStyle=none;html=1;fontFamily=Helvetica;fontSize=12;fontColor=#FFFFFF;" edge="1" parent="1" source="108" target="110">
                    <mxGeometry relative="1" as="geometry"/>
                </mxCell>
                <mxCell id="108" value="printAray&lt;br&gt;(arrayFix)" style="shape=process;whiteSpace=wrap;html=1;backgroundOutline=1;labelBackgroundColor=none;fontFamily=Helvetica;fontSize=12;fontColor=#FFFFFF;fillColor=#2A2A2A;" vertex="1" parent="1">
                    <mxGeometry x="-479" y="602" width="100" height="60" as="geometry"/>
                </mxCell>
                <mxCell id="110" value="finalArrayFromFix[ ] =&lt;br&gt;ChangeArray&lt;br&gt;(arrayFix)" style="shape=process;whiteSpace=wrap;html=1;backgroundOutline=1;labelBackgroundColor=none;fontFamily=Helvetica;fontSize=12;fontColor=#FFFFFF;fillColor=#2A2A2A;" vertex="1" parent="1">
                    <mxGeometry x="-359" y="603" width="150" height="60" as="geometry"/>
                </mxCell>
                <mxCell id="116" value="" style="edgeStyle=none;html=1;fontFamily=Helvetica;fontSize=12;fontColor=#FFFFFF;" edge="1" parent="1" source="113" target="115">
                    <mxGeometry relative="1" as="geometry"/>
                </mxCell>
                <mxCell id="113" value="printAray&lt;br&gt;(finalArrayFromFix)" style="shape=process;whiteSpace=wrap;html=1;backgroundOutline=1;labelBackgroundColor=none;fontFamily=Helvetica;fontSize=12;fontColor=#FFFFFF;fillColor=#2A2A2A;" vertex="1" parent="1">
                    <mxGeometry x="-189" y="603" width="140" height="60" as="geometry"/>
                </mxCell>
                <mxCell id="114" value="" style="endArrow=classic;html=1;fontFamily=Helvetica;fontSize=12;fontColor=#FFFFFF;exitX=1;exitY=0.5;exitDx=0;exitDy=0;entryX=0;entryY=0.5;entryDx=0;entryDy=0;" edge="1" parent="1" source="110" target="113">
                    <mxGeometry width="50" height="50" relative="1" as="geometry">
                        <mxPoint x="-239" y="614" as="sourcePoint"/>
                        <mxPoint x="-189" y="564" as="targetPoint"/>
                    </mxGeometry>
                </mxCell>
                <mxCell id="115" value="break" style="rounded=0;whiteSpace=wrap;html=1;labelBackgroundColor=none;fontFamily=Helvetica;fontSize=12;fontColor=#FFFFFF;fillColor=#2A2A2A;" vertex="1" parent="1">
                    <mxGeometry x="-29" y="609.5" width="120" height="45" as="geometry"/>
                </mxCell>
                <mxCell id="117" value="" style="edgeStyle=none;html=1;fontFamily=Helvetica;fontSize=12;fontColor=#FFFFFF;entryX=0;entryY=0.5;entryDx=0;entryDy=0;" edge="1" parent="1" source="118" target="129">
                    <mxGeometry relative="1" as="geometry"/>
                </mxCell>
                <mxCell id="135" value="" style="edgeStyle=none;html=1;fontFamily=Helvetica;fontSize=12;fontColor=#FFFFFF;" edge="1" parent="1" source="118" target="134">
                    <mxGeometry relative="1" as="geometry"/>
                </mxCell>
                <mxCell id="118" value="case input == 2" style="rhombus;whiteSpace=wrap;html=1;fontFamily=Helvetica;fontSize=12;fontColor=#FFFFFF;" vertex="1" parent="1">
                    <mxGeometry x="-789" y="709" width="120" height="80" as="geometry"/>
                </mxCell>
                <mxCell id="119" value="" style="edgeStyle=none;html=1;fontFamily=Helvetica;fontSize=12;fontColor=#FFFFFF;" edge="1" parent="1" target="122">
                    <mxGeometry relative="1" as="geometry">
                        <mxPoint x="-310" y="750" as="sourcePoint"/>
                    </mxGeometry>
                </mxCell>
                <mxCell id="133" value="" style="edgeStyle=none;html=1;fontFamily=Helvetica;fontSize=12;fontColor=#FFFFFF;" edge="1" parent="1" source="122" target="123">
                    <mxGeometry relative="1" as="geometry"/>
                </mxCell>
                <mxCell id="122" value="printAray&lt;br&gt;(arrayUser)" style="shape=process;whiteSpace=wrap;html=1;backgroundOutline=1;labelBackgroundColor=none;fontFamily=Helvetica;fontSize=12;fontColor=#FFFFFF;fillColor=#2A2A2A;" vertex="1" parent="1">
                    <mxGeometry x="-329" y="719" width="100" height="60" as="geometry"/>
                </mxCell>
                <mxCell id="123" value="finalArrayFromUser[ ] =&lt;br&gt;ChangeArray&lt;br&gt;(arrayUser)" style="shape=process;whiteSpace=wrap;html=1;backgroundOutline=1;labelBackgroundColor=none;fontFamily=Helvetica;fontSize=12;fontColor=#FFFFFF;fillColor=#2A2A2A;" vertex="1" parent="1">
                    <mxGeometry x="-194" y="720" width="165" height="60" as="geometry"/>
                </mxCell>
                <mxCell id="124" value="" style="edgeStyle=none;html=1;fontFamily=Helvetica;fontSize=12;fontColor=#FFFFFF;" edge="1" parent="1" source="125" target="127">
                    <mxGeometry relative="1" as="geometry"/>
                </mxCell>
                <mxCell id="125" value="printAray&lt;br&gt;(finalArrayFromUser)" style="shape=process;whiteSpace=wrap;html=1;backgroundOutline=1;labelBackgroundColor=none;fontFamily=Helvetica;fontSize=12;fontColor=#FFFFFF;fillColor=#2A2A2A;" vertex="1" parent="1">
                    <mxGeometry x="1" y="719" width="160" height="60" as="geometry"/>
                </mxCell>
                <mxCell id="126" value="" style="endArrow=classic;html=1;fontFamily=Helvetica;fontSize=12;fontColor=#FFFFFF;exitX=1;exitY=0.5;exitDx=0;exitDy=0;entryX=0;entryY=0.5;entryDx=0;entryDy=0;" edge="1" parent="1" source="123" target="125">
                    <mxGeometry width="50" height="50" relative="1" as="geometry">
                        <mxPoint x="-9" y="731" as="sourcePoint"/>
                        <mxPoint x="41" y="681" as="targetPoint"/>
                    </mxGeometry>
                </mxCell>
                <mxCell id="127" value="break" style="rounded=0;whiteSpace=wrap;html=1;labelBackgroundColor=none;fontFamily=Helvetica;fontSize=12;fontColor=#FFFFFF;fillColor=#2A2A2A;" vertex="1" parent="1">
                    <mxGeometry x="20" y="824" width="120" height="45" as="geometry"/>
                </mxCell>
                <mxCell id="131" value="" style="edgeStyle=none;html=1;fontFamily=Helvetica;fontSize=12;fontColor=#FFFFFF;" edge="1" parent="1" source="129" target="130">
                    <mxGeometry relative="1" as="geometry"/>
                </mxCell>
                <mxCell id="129" value="quantityElements;&lt;br&gt;arrayUser [quantityElements]" style="shape=parallelogram;perimeter=parallelogramPerimeter;whiteSpace=wrap;html=1;fixedSize=1;labelBackgroundColor=none;fontFamily=Helvetica;fontSize=12;fontColor=#FFFFFF;fillColor=#2A2A2A;" vertex="1" parent="1">
                    <mxGeometry x="-649" y="719" width="140" height="60" as="geometry"/>
                </mxCell>
                <mxCell id="132" value="" style="edgeStyle=none;html=1;fontFamily=Helvetica;fontSize=12;fontColor=#FFFFFF;" edge="1" parent="1" source="130" target="122">
                    <mxGeometry relative="1" as="geometry"/>
                </mxCell>
                <mxCell id="130" value="FillUserArray&lt;br&gt;(arrayUser)" style="shape=process;whiteSpace=wrap;html=1;backgroundOutline=1;fillColor=#2A2A2A;fontColor=#FFFFFF;labelBackgroundColor=none;" vertex="1" parent="1">
                    <mxGeometry x="-479" y="720" width="120" height="60" as="geometry"/>
                </mxCell>
                <mxCell id="137" value="" style="edgeStyle=none;html=1;fontFamily=Helvetica;fontSize=12;fontColor=#FFFFFF;" edge="1" parent="1" source="134" target="136">
                    <mxGeometry relative="1" as="geometry"/>
                </mxCell>
                <mxCell id="134" value="defualt" style="rhombus;whiteSpace=wrap;html=1;fontFamily=Helvetica;fontSize=12;fontColor=#FFFFFF;" vertex="1" parent="1">
                    <mxGeometry x="-789" y="820" width="120" height="80" as="geometry"/>
                </mxCell>
                <mxCell id="136" value="Неверный ввод!" style="shape=document;whiteSpace=wrap;html=1;boundedLbl=1;labelBackgroundColor=none;fontFamily=Helvetica;fontSize=12;fontColor=#FFFFFF;fillColor=#2A2A2A;" vertex="1" parent="1">
                    <mxGeometry x="-635" y="821" width="120" height="80" as="geometry"/>
                </mxCell>
                <mxCell id="140" value="" style="edgeStyle=elbowEdgeStyle;elbow=horizontal;endArrow=classic;html=1;fontFamily=Helvetica;fontSize=12;fontColor=#FFFFFF;entryX=0;entryY=0.5;entryDx=0;entryDy=0;exitX=1;exitY=0.5;exitDx=0;exitDy=0;exitPerimeter=0;" edge="1" parent="1" source="144" target="98">
                    <mxGeometry width="50" height="50" relative="1" as="geometry">
                        <mxPoint x="-579" y="939" as="sourcePoint"/>
                        <mxPoint x="-589" y="1019" as="targetPoint"/>
                        <Array as="points">
                            <mxPoint x="-819" y="679"/>
                        </Array>
                    </mxGeometry>
                </mxCell>
                <mxCell id="144" value="" style="line;strokeWidth=2;direction=south;html=1;labelBackgroundColor=none;fontFamily=Helvetica;fontSize=12;fontColor=#FFFFFF;fillColor=#2A2A2A;" vertex="1" parent="1">
                    <mxGeometry x="-579" y="890" width="10" height="54" as="geometry"/>
                </mxCell>
                <mxCell id="145" value="End" style="rounded=1;whiteSpace=wrap;html=1;labelBackgroundColor=none;fontFamily=Helvetica;fontSize=12;fontColor=#FFFFFF;fillColor=#2A2A2A;" vertex="1" parent="1">
                    <mxGeometry x="170" y="960" width="120" height="60" as="geometry"/>
                </mxCell>
                <mxCell id="146" value="" style="edgeStyle=segmentEdgeStyle;endArrow=classic;html=1;fontFamily=Helvetica;fontSize=12;fontColor=#FFFFFF;entryX=0.5;entryY=0;entryDx=0;entryDy=0;exitX=1;exitY=0.5;exitDx=0;exitDy=0;" edge="1" parent="1" source="115" target="145">
                    <mxGeometry width="50" height="50" relative="1" as="geometry">
                        <mxPoint x="90" y="640" as="sourcePoint"/>
                        <mxPoint x="-10" y="840" as="targetPoint"/>
                    </mxGeometry>
                </mxCell>
                <mxCell id="151" value="" style="edgeStyle=elbowEdgeStyle;elbow=horizontal;endArrow=classic;html=1;fontFamily=Helvetica;fontSize=12;fontColor=#FFFFFF;exitX=0.5;exitY=1;exitDx=0;exitDy=0;" edge="1" parent="1" source="127">
                    <mxGeometry width="50" height="50" relative="1" as="geometry">
                        <mxPoint x="-20" y="830" as="sourcePoint"/>
                        <mxPoint x="230" y="920" as="targetPoint"/>
                        <Array as="points">
                            <mxPoint x="80" y="900"/>
                        </Array>
                    </mxGeometry>
                </mxCell>
                <mxCell id="152" value="yes" style="text;html=1;strokeColor=none;fillColor=none;align=center;verticalAlign=middle;whiteSpace=wrap;rounded=0;labelBackgroundColor=none;fontFamily=Helvetica;fontSize=12;fontColor=#FFFFFF;" vertex="1" parent="1">
                    <mxGeometry x="-680" y="602" width="60" height="30" as="geometry"/>
                </mxCell>
                <mxCell id="154" value="yes" style="text;html=1;strokeColor=none;fillColor=none;align=center;verticalAlign=middle;whiteSpace=wrap;rounded=0;labelBackgroundColor=none;fontFamily=Helvetica;fontSize=12;fontColor=#FFFFFF;" vertex="1" parent="1">
                    <mxGeometry x="-689" y="718" width="60" height="30" as="geometry"/>
                </mxCell>
                <mxCell id="155" value="yes" style="text;html=1;strokeColor=none;fillColor=none;align=center;verticalAlign=middle;whiteSpace=wrap;rounded=0;labelBackgroundColor=none;fontFamily=Helvetica;fontSize=12;fontColor=#FFFFFF;" vertex="1" parent="1">
                    <mxGeometry x="-686" y="832" width="60" height="30" as="geometry"/>
                </mxCell>
                <mxCell id="157" value="no" style="text;html=1;strokeColor=none;fillColor=none;align=center;verticalAlign=middle;whiteSpace=wrap;rounded=0;labelBackgroundColor=none;fontFamily=Helvetica;fontSize=12;fontColor=#FFFFFF;" vertex="1" parent="1">
                    <mxGeometry x="-740" y="672" width="60" height="30" as="geometry"/>
                </mxCell>
                <mxCell id="158" value="no" style="text;html=1;strokeColor=none;fillColor=none;align=center;verticalAlign=middle;whiteSpace=wrap;rounded=0;labelBackgroundColor=none;fontFamily=Helvetica;fontSize=12;fontColor=#FFFFFF;" vertex="1" parent="1">
                    <mxGeometry x="-740" y="788" width="60" height="30" as="geometry"/>
                </mxCell>
            </root>
        </mxGraphModel>
    </diagram>
</mxfile>